<svg version="1.1" xmlns="http://www.w3.org/2000/svg" xmlns:xlink="http://www.w3.org/1999/xlink" width="800" height="800"><defs/><g transform="scale(2,2)"><g id="background-6641aa94"><rect fill="white" stroke="none" x="0" y="0" width="400" height="400" class="dcg-svg-background"/></g><g id="background-images-6641aa94"/><g id="graphpaper-6641aa94"><g id="grid-6641aa94"><g><path fill="none" stroke="rgb(0,0,0)" class="dcg-svg-minor-gridline" paint-order="fill stroke markers" d=" M 3.5 0 L 3.5 400" stroke-opacity="0.3" stroke-miterlimit="10" stroke-dasharray=""/><path fill="none" stroke="rgb(0,0,0)" class="dcg-svg-minor-gridline" paint-order="fill stroke markers" d=" M 29.5 0 L 29.5 400" stroke-opacity="0.3" stroke-miterlimit="10" stroke-dasharray=""/><path fill="none" stroke="rgb(0,0,0)" class="dcg-svg-minor-gridline" paint-order="fill stroke markers" d=" M 54.5 0 L 54.5 400" stroke-opacity="0.3" stroke-miterlimit="10" stroke-dasharray=""/><path fill="none" stroke="rgb(0,0,0)" class="dcg-svg-minor-gridline" paint-order="fill stroke markers" d=" M 80.5 0 L 80.5 400" stroke-opacity="0.3" stroke-miterlimit="10" stroke-dasharray=""/><path fill="none" stroke="rgb(0,0,0)" class="dcg-svg-minor-gridline" paint-order="fill stroke markers" d=" M 105.5 0 L 105.5 400" stroke-opacity="0.3" stroke-miterlimit="10" stroke-dasharray=""/><path fill="none" stroke="rgb(0,0,0)" class="dcg-svg-minor-gridline" paint-order="fill stroke markers" d=" M 131.5 0 L 131.5 400" stroke-opacity="0.3" stroke-miterlimit="10" stroke-dasharray=""/><path fill="none" stroke="rgb(0,0,0)" class="dcg-svg-minor-gridline" paint-order="fill stroke markers" d=" M 182.5 0 L 182.5 400" stroke-opacity="0.3" stroke-miterlimit="10" stroke-dasharray=""/><path fill="none" stroke="rgb(0,0,0)" class="dcg-svg-minor-gridline" paint-order="fill stroke markers" d=" M 207.5 0 L 207.5 400" stroke-opacity="0.3" stroke-miterlimit="10" stroke-dasharray=""/><path fill="none" stroke="rgb(0,0,0)" class="dcg-svg-minor-gridline" paint-order="fill stroke markers" d=" M 233.5 0 L 233.5 400" stroke-opacity="0.3" stroke-miterlimit="10" stroke-dasharray=""/><path fill="none" stroke="rgb(0,0,0)" class="dcg-svg-minor-gridline" paint-order="fill stroke markers" d=" M 258.5 0 L 258.5 400" stroke-opacity="0.3" stroke-miterlimit="10" stroke-dasharray=""/><path fill="none" stroke="rgb(0,0,0)" class="dcg-svg-minor-gridline" paint-order="fill stroke markers" d=" M 284.5 0 L 284.5 400" stroke-opacity="0.3" stroke-miterlimit="10" stroke-dasharray=""/><path fill="none" stroke="rgb(0,0,0)" class="dcg-svg-minor-gridline" paint-order="fill stroke markers" d=" M 309.5 0 L 309.5 400" stroke-opacity="0.3" stroke-miterlimit="10" stroke-dasharray=""/><path fill="none" stroke="rgb(0,0,0)" class="dcg-svg-minor-gridline" paint-order="fill stroke markers" d=" M 335.5 0 L 335.5 400" stroke-opacity="0.3" stroke-miterlimit="10" stroke-dasharray=""/><path fill="none" stroke="rgb(0,0,0)" class="dcg-svg-minor-gridline" paint-order="fill stroke markers" d=" M 360.5 0 L 360.5 400" stroke-opacity="0.3" stroke-miterlimit="10" stroke-dasharray=""/><path fill="none" stroke="rgb(0,0,0)" class="dcg-svg-minor-gridline" paint-order="fill stroke markers" d=" M 386.5 0 L 386.5 400" stroke-opacity="0.3" stroke-miterlimit="10" stroke-dasharray=""/><path fill="none" stroke="rgb(0,0,0)" class="dcg-svg-minor-gridline" paint-order="fill stroke markers" d=" M 0 380.5 L 400 380.5" stroke-opacity="0.3" stroke-miterlimit="10" stroke-dasharray=""/><path fill="none" stroke="rgb(0,0,0)" class="dcg-svg-minor-gridline" paint-order="fill stroke markers" d=" M 0 354.5 L 400 354.5" stroke-opacity="0.3" stroke-miterlimit="10" stroke-dasharray=""/><path fill="none" stroke="rgb(0,0,0)" class="dcg-svg-minor-gridline" paint-order="fill stroke markers" d=" M 0 329.5 L 400 329.5" stroke-opacity="0.3" stroke-miterlimit="10" stroke-dasharray=""/><path fill="none" stroke="rgb(0,0,0)" class="dcg-svg-minor-gridline" paint-order="fill stroke markers" d=" M 0 303.5 L 400 303.5" stroke-opacity="0.3" stroke-miterlimit="10" stroke-dasharray=""/><path fill="none" stroke="rgb(0,0,0)" class="dcg-svg-minor-gridline" paint-order="fill stroke markers" d=" M 0 278.5 L 400 278.5" stroke-opacity="0.3" stroke-miterlimit="10" stroke-dasharray=""/><path fill="none" stroke="rgb(0,0,0)" class="dcg-svg-minor-gridline" paint-order="fill stroke markers" d=" M 0 252.5 L 400 252.5" stroke-opacity="0.3" stroke-miterlimit="10" stroke-dasharray=""/><path fill="none" stroke="rgb(0,0,0)" class="dcg-svg-minor-gridline" paint-order="fill stroke markers" d=" M 0 201.5 L 400 201.5" stroke-opacity="0.3" stroke-miterlimit="10" stroke-dasharray=""/><path fill="none" stroke="rgb(0,0,0)" class="dcg-svg-minor-gridline" paint-order="fill stroke markers" d=" M 0 176.5 L 400 176.5" stroke-opacity="0.3" stroke-miterlimit="10" stroke-dasharray=""/><path fill="none" stroke="rgb(0,0,0)" class="dcg-svg-minor-gridline" paint-order="fill stroke markers" d=" M 0 150.5 L 400 150.5" stroke-opacity="0.3" stroke-miterlimit="10" stroke-dasharray=""/><path fill="none" stroke="rgb(0,0,0)" class="dcg-svg-minor-gridline" paint-order="fill stroke markers" d=" M 0 125.5 L 400 125.5" stroke-opacity="0.3" stroke-miterlimit="10" stroke-dasharray=""/><path fill="none" stroke="rgb(0,0,0)" class="dcg-svg-minor-gridline" paint-order="fill stroke markers" d=" M 0 99.5 L 400 99.5" stroke-opacity="0.3" stroke-miterlimit="10" stroke-dasharray=""/><path fill="none" stroke="rgb(0,0,0)" class="dcg-svg-minor-gridline" paint-order="fill stroke markers" d=" M 0 74.5 L 400 74.5" stroke-opacity="0.3" stroke-miterlimit="10" stroke-dasharray=""/><path fill="none" stroke="rgb(0,0,0)" class="dcg-svg-minor-gridline" paint-order="fill stroke markers" d=" M 0 48.5 L 400 48.5" stroke-opacity="0.3" stroke-miterlimit="10" stroke-dasharray=""/><path fill="none" stroke="rgb(0,0,0)" class="dcg-svg-minor-gridline" paint-order="fill stroke markers" d=" M 0 23.5 L 400 23.5" stroke-opacity="0.3" stroke-miterlimit="10" stroke-dasharray=""/><path fill="none" stroke="rgb(0,0,0)" class="dcg-svg-major-gridline" paint-order="fill stroke markers" d=" M 29.5 0 L 29.5 400" stroke-opacity="0.4285714285714285" stroke-miterlimit="10" stroke-dasharray=""/><path fill="none" stroke="rgb(0,0,0)" class="dcg-svg-major-gridline" paint-order="fill stroke markers" d=" M 284.5 0 L 284.5 400" stroke-opacity="0.4285714285714285" stroke-miterlimit="10" stroke-dasharray=""/><path fill="none" stroke="rgb(0,0,0)" class="dcg-svg-major-gridline" paint-order="fill stroke markers" d=" M 0 354.5 L 400 354.5" stroke-opacity="0.4285714285714285" stroke-miterlimit="10" stroke-dasharray=""/><path fill="none" stroke="rgb(0,0,0)" class="dcg-svg-major-gridline" paint-order="fill stroke markers" d=" M 0 99.5 L 400 99.5" stroke-opacity="0.4285714285714285" stroke-miterlimit="10" stroke-dasharray=""/></g></g><g id="axis-6641aa94"><g id="yaxis-6641aa94"><title>Y axis</title><path fill="none" stroke="rgb(0,0,0)" class="dcg-svg-axis-line" paint-order="fill stroke markers" d=" M 157 0 L 157 400" stroke-opacity="0.9" stroke-miterlimit="10" stroke-width="2" stroke-dasharray=""/></g><g id="xaxis-6641aa94"><title>X axis</title><path fill="none" stroke="rgb(0,0,0)" class="dcg-svg-axis-line" paint-order="fill stroke markers" d=" M 0 228 L 400 228" stroke-opacity="0.9" stroke-miterlimit="10" stroke-width="2" stroke-dasharray=""/></g><g><g class="dcg-svg-axis-value"><text fill="none" stroke="#ffffff" font-family="Arial" font-size="17px" font-style="normal" font-weight="normal" text-decoration="normal" x="147.65044042013912" y="245.89163104750793" text-anchor="middle" stroke-miterlimit="2" stroke-width="3" stroke-dasharray="">0</text><text fill="#000000" stroke="none" font-family="Arial" font-size="17px" font-style="normal" font-weight="normal" text-decoration="normal" x="147.65044042013912" y="245.89163104750793" text-anchor="middle">0</text></g><g class="dcg-svg-axis-value"><text fill="none" stroke="#ffffff" font-family="Arial" font-size="17px" font-style="normal" font-weight="normal" text-decoration="normal" x="27.10750790976313" y="245.89163104750793" text-anchor="middle" stroke-miterlimit="2" stroke-width="3" stroke-dasharray="">-5</text><text fill="#000000" stroke="none" font-family="Arial" font-size="17px" font-style="normal" font-weight="normal" text-decoration="normal" x="27.10750790976313" y="245.89163104750793" text-anchor="middle">-5</text></g><g class="dcg-svg-axis-value"><text fill="none" stroke="#ffffff" font-family="Arial" font-size="17px" font-style="normal" font-weight="normal" text-decoration="normal" x="284.82064505957396" y="245.89163104750793" text-anchor="middle" stroke-miterlimit="2" stroke-width="3" stroke-dasharray="">5</text><text fill="#000000" stroke="none" font-family="Arial" font-size="17px" font-style="normal" font-weight="normal" text-decoration="normal" x="284.82064505957396" y="245.89163104750793" text-anchor="middle">5</text></g><g class="dcg-svg-axis-value"><text fill="none" stroke="#ffffff" font-family="Arial" font-size="17px" font-style="normal" font-weight="normal" text-decoration="normal" x="144.82316752814083" y="359.83456317641424" text-anchor="middle" stroke-miterlimit="2" stroke-width="3" stroke-dasharray="">-5</text><text fill="#000000" stroke="none" font-family="Arial" font-size="17px" font-style="normal" font-weight="normal" text-decoration="normal" x="144.82316752814083" y="359.83456317641424" text-anchor="middle">-5</text></g><g class="dcg-svg-axis-value"><text fill="none" stroke="#ffffff" font-family="Arial" font-size="17px" font-style="normal" font-weight="normal" text-decoration="normal" x="147.65044042013912" y="104.94869891860166" text-anchor="middle" stroke-miterlimit="2" stroke-width="3" stroke-dasharray="">5</text><text fill="#000000" stroke="none" font-family="Arial" font-size="17px" font-style="normal" font-weight="normal" text-decoration="normal" x="147.65044042013912" y="104.94869891860166" text-anchor="middle">5</text></g></g></g></g><g id="expressions-6641aa94"><g id="sketch-6641aa94"><title>Expression 1</title><path fill="#c74440" stroke="none" paint-order="stroke fill markers" d="" fill-opacity="0.4"/><path fill="#c74440" stroke="none" paint-order="stroke fill markers" d="" fill-opacity="0.4"/><g><path fill="none" stroke="#c74440" class="dcg-svg-curve" paint-order="fill stroke markers" d=" M 20.444840104001724 -6.5 L 20.444840104001724 -6.5 L 36.90234374999998 24.94665440207649 L 50.37890625 51.15836358137045 L 61.414062500000014 73.0883832312968 L 70.49609375000001 91.60707639719897 L 78.11328125000001 107.62042599628393 L 84.46093750000001 121.4536287112835 L 89.83203125 133.66133418548094 L 94.32421875000001 144.38191774705734 L 98.13281250000001 153.99677415598006 L 101.35546875 162.67795420649261 L 104.08984374999999 170.6169043160353 L 106.43359375000001 178.04398400812372 L 108.38671875000001 184.9006470011383 L 110.04687500000003 191.48143751806396 L 111.4140625 197.76247781615444 L 112.48828125000001 203.66979207504124 L 113.26953125000001 209.0076594156788 L 113.85546875000001 214.28855115918208 L 114.24609375000004 219.54000149329815 L 114.44140625000001 224.87638379967305 L 114.46214125501398 227.26762990807933" stroke-linecap="round" stroke-linejoin="round" stroke-miterlimit="10" stroke-width="3.5" stroke-opacity="0.9" stroke-dasharray=""/></g><g><path fill="none" stroke="#c74440" class="dcg-svg-curve" paint-order="fill stroke markers" d=" M 199.2932846063214 227.26762990807933 L 199.2932846063214 227.26762990807933 L 199.40234375000003 221.7807016985032 L 199.79296875000003 215.49584274813668 L 200.37890625 209.85678460603455 L 201.16015625 204.33238058645068 L 202.13671875000003 198.80335724083972 L 203.40625 192.78679384727346 L 204.96875 186.40911713728377 L 206.82421875000003 179.72174426735353 L 208.97265625000003 172.74141903590953 L 211.51171875000003 165.18840681180615 L 214.53906250000003 156.84967048950307 L 218.05468750000003 147.79115739099933 L 222.15625 137.81277251900792 L 226.94140625000003 126.73414755488221 L 232.60546875000003 114.17147765228987 L 239.24609375 99.97750702276426 L 247.15625000000006 83.597230518657 L 256.53125000000006 64.70017774878369 L 267.76171875 42.57168744180785 L 281.23828125 16.516526057668898 L 293.3314176590827 -6.5" stroke-linecap="round" stroke-linejoin="round" stroke-miterlimit="10" stroke-width="3.5" stroke-opacity="0.9" stroke-dasharray=""/></g><g><path fill="none" stroke="#c74440" class="dcg-svg-curve" paint-order="fill stroke markers" d=" M 48.773185993957 406.5 L 48.773185993957 406.5 L 50.37890625 403.3768985136454 L 61.414062500000014 381.44687886371906 L 70.49609375000001 362.9281856978169 L 78.11328125000001 346.914836098732 L 84.46093750000001 333.0816333837324 L 89.83203125 320.8739279095349 L 94.32421875000001 310.1533443479585 L 98.13281250000001 300.5384879390358 L 101.35546875 291.8573078885233 L 104.08984374999999 283.91835777898063 L 106.43359375000001 276.4912780868922 L 108.38671875000001 269.6346150938776 L 110.04687500000003 263.0538245769519 L 111.4140625 256.7727842788614 L 112.48828125000001 250.86547001997462 L 113.26953125000001 245.52760267933706 L 113.85546875000001 240.2467109358338 L 114.24609375000004 234.99526060171775 L 114.44140625000001 229.65887829534284 L 114.46214125501398 227.26763218693654" stroke-linecap="round" stroke-linejoin="round" stroke-miterlimit="10" stroke-width="3.5" stroke-opacity="0.9" stroke-dasharray=""/></g><g><path fill="none" stroke="#c74440" class="dcg-svg-curve" paint-order="fill stroke markers" d=" M 199.2932846063214 227.26763218693654 L 199.2932846063214 227.26763218693654 L 199.40234375000003 232.75456039651266 L 199.79296875000003 239.03941934687919 L 200.37890625 244.67847748898134 L 201.16015625 250.20288150856518 L 202.13671875000003 255.73190485417615 L 203.40625 261.74846824774244 L 204.96875 268.1261449577321 L 206.82421875000003 274.81351782766234 L 208.97265625000003 281.79384305910634 L 211.51171875000003 289.3468552832097 L 214.53906250000003 297.6855916055128 L 218.05468750000003 306.74410470401654 L 222.15625 316.72248957600794 L 226.94140625000003 327.80111454013365 L 232.60546875000003 340.363784442726 L 239.24609375 354.5577550722516 L 247.15625000000006 370.9380315763589 L 256.53125000000006 389.83508434623224 L 264.9888904388521 406.5" stroke-linecap="round" stroke-linejoin="round" stroke-miterlimit="10" stroke-width="3.5" stroke-opacity="0.9" stroke-dasharray=""/></g></g><g id="sketch-6641aa94"><title>A</title><path fill="none" stroke="#6042a6" class="dcg-svg-point" paint-order="fill stroke markers" d=" M 105.80054007910519 176.19045819594544 L 105.80054007910519 176.39045819594543 L 106.00054007910518 176.39045819594543 L 106.00054007910518 176.19045819594544" stroke-linecap="round" stroke-linejoin="round" stroke-miterlimit="10" stroke-width="10.5" stroke-opacity="0.9" stroke-dasharray=""/></g><g id="sketch-6641aa94"><title>B</title><path fill="none" stroke="#000000" class="dcg-svg-point" paint-order="fill stroke markers" d=" M 233.24347220801147 112.4689921314923 L 233.24347220801147 112.66899213149229 L 233.44347220801146 112.66899213149229 L 233.44347220801146 112.4689921314923" stroke-linecap="round" stroke-linejoin="round" stroke-miterlimit="10" stroke-width="10.5" stroke-opacity="0.9" stroke-dasharray=""/></g><g id="sketch-6641aa94"><title>Expression 5</title><path fill="#2d70b3" stroke="none" paint-order="stroke fill markers" d="" fill-opacity="0.4"/><g><path fill="none" stroke="#2d70b3" class="dcg-svg-curve" paint-order="fill stroke markers" d=" M -0.5 229.49072823549804 L -0.5 229.49072823549804 L 399.5 29.49072823549801" stroke-linecap="round" stroke-linejoin="round" stroke-miterlimit="10" stroke-width="3.5" stroke-opacity="0.9" stroke-dasharray=""/></g></g><g id="sketch-6641aa94"><title>Expression 6</title><path fill="#388c46" stroke="none" paint-order="stroke fill markers" d="" fill-opacity="0.4"/><g><path fill="none" stroke="#388c46" class="dcg-svg-curve" paint-order="fill stroke markers" d=" M 47.72766996673023 -6.5 L 47.72766996673023 -6.5 L 51.74609375000002 10.451814608794791 L 56.433593750000014 29.355104447458757 L 61.023437500000014 47.02926935780755 L 65.51562500000001 63.52706553289437 L 69.91015625000001 78.90012669357986 L 74.20703125000001 93.19896408853202 L 78.40625000000001 106.47296649422628 L 82.50781250000001 118.77040021494525 L 86.51171875 130.13840908277922 L 90.41796875000001 140.62301445762563 L 94.32421875000001 150.50896799640685 L 98.13281250000001 159.57138322580707 L 101.84375000000003 167.85403656133846 L 105.45703125000001 175.39958194632072 L 108.97265625000001 182.24955085188088 L 112.39062500000003 188.44435227695337 L 115.80859375000001 194.18081089003846 L 119.12890625000001 199.3144840582915 L 122.44921875000001 204.01563127498747 L 125.67187500000003 208.164878452917 L 128.89453125 211.90666822492463 L 132.01953125 215.1459467346412 L 135.14453125 218.00208806927603 L 138.3671875 220.5462000117558 L 141.58984375 222.68285454831366 L 144.61718750000003 224.3188507321743 L 147.44921875000003 225.52378183928022 L 150.18359375 226.38858599462776 L 152.82031250000003 226.94469241961033 L 155.45703125 227.2280381017857 L 157.99609375000003 227.2430950525305 L 160.53515625 227.00522160253774 L 163.17187500000003 226.4904895557587 L 165.80859375000003 225.70299676617248 L 168.54296875 224.5982363808656 L 171.375 223.14477917844457 L 174.3046875 221.31007346532346 L 177.4296875 218.9818898996338 L 180.65234375000003 216.17966678865398 L 183.77734375000003 213.0732358360796 L 186.90234375000003 209.58366770842352 L 190.125 205.58376676791573 L 193.34765625000003 201.1764084214861 L 196.57031250000003 196.3615926691346 L 199.890625 190.9747081333372 L 203.30859375000003 184.9775907595447 L 206.72656250000003 178.52213057376483 L 210.24218749999997 171.40405551433417 L 213.85546875000003 163.5829565823183 L 217.46875 155.2496361730692 L 221.17968750000003 146.1579165963989 L 224.98828125000003 136.26514390898774 L 228.89453125000003 125.52754169532346 L 232.89843750000003 113.90021106770115 L 237.00000000000006 101.3371306662234 L 241.19921875 87.79115665879999 L 245.39843750000003 73.55336562332371 L 249.69531250000003 58.268325909524776 L 254.08984375000006 41.8866487409278 L 258.58203125000006 24.357822868864844 L 263.171875 5.630214572475268 L 266.0178614204357 -6.5" stroke-linecap="round" stroke-linejoin="round" stroke-miterlimit="10" stroke-width="3.5" stroke-opacity="0.9" stroke-dasharray=""/></g></g></g><g id="labels-6641aa94"><g transform="rotate(0,0,0) translate(106.40054007910518,176.79045819594543)"><g class="dcg-svg-label"><g transform="translate(-19.967205728519247,6.942879206398317)"><g><text fill="none" stroke="#FFF" font-family="arial, sans-serif" font-size="18.7px" font-style="normal" font-weight="400" text-decoration="normal" x="0" y="15.903056494140625" text-anchor="start" stroke-linecap="round" stroke-linejoin="round" stroke-miterlimit="2" stroke-width="3" stroke-opacity="0.9" stroke-dasharray="">A</text></g></g><g transform="translate(-19.967205728519247,6.942879206398317)"><g><text fill="rgb(96, 66, 166)" stroke="none" font-family="arial, sans-serif" font-size="18.7px" font-style="normal" font-weight="400" text-decoration="normal" x="0" y="15.903056494140625" text-anchor="start" fill-opacity="0.9">A</text></g></g></g></g><g transform="rotate(0,0,0) translate(233.84347220801146,113.0689921314923)"><g class="dcg-svg-label"><g transform="translate(6.5065338955041625,6.947670466163956)"><g><text fill="none" stroke="#FFF" font-family="arial, sans-serif" font-size="18.7px" font-style="normal" font-weight="400" text-decoration="normal" x="0" y="15.903071752929687" text-anchor="start" stroke-linecap="round" stroke-linejoin="round" stroke-miterlimit="2" stroke-width="3" stroke-opacity="0.9" stroke-dasharray="">B</text></g></g><g transform="translate(6.5065338955041625,6.947670466163956)"><g><text fill="rgb(0, 0, 0)" stroke="none" font-family="arial, sans-serif" font-size="18.7px" font-style="normal" font-weight="400" text-decoration="normal" x="0" y="15.903071752929687" text-anchor="start" fill-opacity="0.9">B</text></g></g></g></g></g></g></svg>